<svg xmlns="http://www.w3.org/2000/svg" version="1.1" xmlns:xlink="http://www.w3.org/1999/xlink" xmlns:svgjs="http://svgjs.dev/svgjs" width="3000" height="1500" preserveAspectRatio="none" viewBox="0 0 3000 1500"><g mask="url(&quot;#SvgjsMask1044&quot;)" fill="none"><rect width="3000" height="1500" x="0" y="0" fill="rgba(0, 0, 0, 1)"></rect><use xlink:href="#SvgjsG1050" transform="translate(0, 0)" fill="rgba(241, 238, 241, 1)"></use><use xlink:href="#SvgjsG1050" transform="translate(0, 840)" fill="rgba(241, 238, 241, 1)"></use><use xlink:href="#SvgjsG1050" transform="translate(840, 0)" fill="rgba(241, 238, 241, 1)"></use><use xlink:href="#SvgjsG1050" transform="translate(840, 840)" fill="rgba(241, 238, 241, 1)"></use><use xlink:href="#SvgjsG1050" transform="translate(1680, 0)" fill="rgba(241, 238, 241, 1)"></use><use xlink:href="#SvgjsG1050" transform="translate(1680, 840)" fill="rgba(241, 238, 241, 1)"></use><use xlink:href="#SvgjsG1050" transform="translate(2520, 0)" fill="rgba(241, 238, 241, 1)"></use><use xlink:href="#SvgjsG1050" transform="translate(2520, 840)" fill="rgba(241, 238, 241, 1)"></use></g><defs><mask id="SvgjsMask1044"><rect width="3000" height="1500" fill="#ffffff"></rect></mask><g id="SvgjsG1045"><path d="M9.44 4.356c0.657 0 1.191-0.54 1.191-1.206 0-0.664-0.535-1.205-1.191-1.205-0.659 0-1.192 0.541-1.192 1.205 0 0.666 0.532 1.206 1.192 1.206m3.237 10.519L10.919 9.48V5.162c0-0.566-0.56-0.541-0.56-0.541H8.09s-0.095-0.014-0.292 0.148l-1.323 0.781-1.378-1.398c-0.225-0.269-0.623-0.309-0.892-0.081-0.27 0.227-0.284 0.64-0.059 0.913l1.76 1.781c0.119 0.126 0.285 0.214 0.472 0.214a0.648 0.648 0 0 0 0.369-0.117l1.159-0.646v3.166L6.131 14.864a0.892 0.892 0 0 0 0.625 1.095c0.472 0.127 0.958-0.157 1.083-0.633L9.389 10.595l1.579 4.742c0.128 0.478 0.612 0.763 1.083 0.631 0.472-0.127 0.752-0.617 0.626-1.093"></path><path d="M3.833 5.592a0.158 0.158 0 0 0 0.225 0l0.021-0.019c0.059-0.064 0.063-0.165 0-0.227l-0.343-0.359a0.163 0.163 0 0 0-0.229-0.001l-0.018 0.021c-0.063 0.064-0.067 0.166-0.004 0.227l0.348 0.358zM7.13 1.549l-2.034 2.221 0.245 0.255 2.27-1.978 1.509-1.404c0.06-0.069 0.099-0.156 0.099-0.253 0-0.213-0.17-0.388-0.376-0.39-0.102-0.002-0.19 0.038-0.26 0.098L7.131 1.549z"></path></g><g id="SvgjsG1046"><path d="M2.457 6.907a1.47 1.47 0 0 0-0.149 0.652l0.053 3.502L1.156 13.662a0.786 0.786 0 0 0 0.572 1.156 0.782 0.782 0 0 0 0.805-0.398l1.33-2.848a0.811 0.811 0 0 0 0.071-0.32l-0.012-2.162 2.044 0.889 0.329 2.115a0.788 0.788 0 0 0 1.55-0.266L7.442 9.28a0.795 0.795 0 0 0-0.441-0.569L5.173 7.9l1.165-2.023 0.576 0.733a0.604 0.604 0 0 0 0.22 0.156l2.198 0.64a0.622 0.622 0 0 0 0.705-0.37 0.622 0.622 0 0 0-0.341-0.808l-0.03-0.011-1.91-0.562-1.44-1.724a1.433 1.433 0 0 0-2.266 0.218l-1.595 2.759z"></path><path d="M8.764 11.924l-0.142 1.048-3.779 0.92 0.035 0.65h9.223c0.325 0 0.59-0.267 0.591-0.59L14.681 1.52 13.419 1.227l-0.729 3.265-1.213 0.511L10.4 8.018l1.024 2.306-0.288 0.885-2.373 0.715zM6.196 3.33A1.179 1.179 0 1 0 6.192 0.974a1.179 1.179 0 0 0 0.004 2.356M3.852 3.515a0.338 0.338 0 0 0-0.124-0.459l-0.569-0.334a0.338 0.338 0 0 0-0.462 0.124L0.942 5.879a0.338 0.338 0 0 0 0.125 0.459l0.572 0.329c0.16 0.094 0.363 0.039 0.457-0.121l1.756-3.031z"></path></g><g id="SvgjsG1047"><path d="M11.063 3.332A1.177 1.177 0 1 0 11.058 0.978a1.177 1.177 0 0 0 0.005 2.354z"></path><path d="M5.182 6.316a0.59 0.59 0 1 1-0.85-0.817l1.974-2.272a0.592 0.592 0 0 1 0.455-0.214H9.618a0.764 0.764 0 0 1 0.538 0.217L11.977 5.049l1.511-1.506a0.61 0.61 0 0 1 0.866 0.853L12.533 6.235c-0.551 0.551-0.996 0.082-0.995 0.081l-1.12-1.12-1.742 2.016 1.6 1.6s0.334 0.313 0.142 0.936L9.522 13.742a0.764 0.764 0 1 1-1.481-0.345l0.736-3.276-1.813-1.767-1.565 1.742s-0.254 0.309-0.924 0.284l-3.168 0.009A0.764 0.764 0 0 1 0.551 9.796a0.747 0.747 0 0 1 0.761-0.925l2.725 0.013 4.036-4.676-1.053-0.004-1.834 2.112z"></path></g><g id="SvgjsG1048"><path d="M16 13.788a2.347 2.347 0 0 1-0.984-0.217 2.437 2.437 0 0 0-1.014-0.226c-0.364 0-0.71 0.085-1.016 0.225a2.346 2.346 0 0 1-0.984 0.218c-0.35 0-0.686-0.079-0.984-0.218-0.311-0.14-0.658-0.225-1.016-0.225-0.362 0-0.709 0.085-1.017 0.225a2.353 2.353 0 0 1-0.984 0.218c-0.35 0-0.684-0.079-0.986-0.218-0.307-0.14-0.653-0.225-1.012-0.225-0.362 0-0.709 0.085-1.016 0.225a2.359 2.359 0 0 1-0.988 0.218c-0.345 0-0.684-0.079-0.983-0.218-0.307-0.14-0.654-0.225-1.016-0.225-0.36 0-0.705 0.085-1.012 0.225A2.375 2.375 0 0 1 0 13.788v-1.493c0.35 0 0.684-0.082 0.988-0.214a2.386 2.386 0 0 1 1.012-0.229c0.362 0 0.709 0.085 1.016 0.229 0.298 0.133 0.637 0.214 0.982 0.214 0.35 0 0.69-0.082 0.988-0.214a2.394 2.394 0 0 1 1.017-0.229c0.359 0 0.705 0.085 1.011 0.229 0.302 0.133 0.636 0.214 0.987 0.214 0.347 0 0.686-0.082 0.984-0.214a2.396 2.396 0 0 1 1.016-0.229c0.358 0 0.705 0.085 1.016 0.229 0.298 0.133 0.634 0.214 0.984 0.214 0.35 0 0.684-0.082 0.984-0.214a2.386 2.386 0 0 1 1.016-0.229c0.362 0 0.709 0.085 1.015 0.229 0.3 0.133 0.634 0.214 0.984 0.214v1.493z m-2.317-4.224c1.051 0 1.903-0.866 1.903-1.928 0-1.063-0.852-1.925-1.903-1.925-1.053 0-1.904 0.862-1.904 1.925 0 1.063 0.776 1.929 1.904 1.929z"></path><path d="M2.597 10.648c0.148 0.036 0.287 0.088 0.419 0.148a2.38 2.38 0 0 0 0.983 0.218c0.35 0 0.69-0.081 0.988-0.218 0.307-0.141 0.653-0.23 1.016-0.229 0.359 0 0.705 0.089 1.012 0.229 0.302 0.136 0.636 0.218 0.986 0.218 0.347 0 0.686-0.081 0.984-0.218 0.307-0.141 0.654-0.23 1.016-0.229 0.358 0 0.705 0.089 1.016 0.229a2.37 2.37 0 0 0 0.984 0.218 2.429 2.429 0 0 0 0.733-0.117l-3.175-5.794 3.693-0.681c0.542-0.104 0.936-0.535 0.935-1.087 0-0.608-0.49-1.095-1.087-1.095-0.043 0-0.083 0-0.124 0.004l-5.704 1.05c-0.4 0.093-0.931 0.685-0.629 1.413l0.049 0.117 1.489 2.718L2.597 10.648z"></path></g><g id="SvgjsG1049"><path d="M2.817 7.889c-0.294 0-0.535 0.241-0.535 0.539a0.534 0.534 0 1 0 0.534-0.539M10.252 3.425a1.164 1.164 0 0 0 0-2.324 1.164 1.164 0 0 0 0 2.327M4.047 5.795a0.844 0.844 0 0 1-0.553 0.33 1.373 1.373 0 0 1-1.018-0.266 1.396 1.396 0 0 1-0.589-0.876l-0.015-0.167c0-0.175 0.048-0.332 0.145-0.465 0.305-0.433 1.012-0.463 1.576-0.064 0.557 0.399 0.764 1.076 0.454 1.509m11.2 7.99L13.361 11.555 12.771 8.102l-0.09-0.39c0.004 0.004-0.237-1.087-0.422-1.939l0.574 0.329c0.015 0.033 1.004 1.911 1.004 1.911a0.592 0.592 0 1 0 1.047-0.553l-1.085-2.062s-0.044-0.073-0.097-0.131c-0.079-0.077-0.25-0.175-0.25-0.175L11.35 3.898a1.271 1.271 0 0 0-1.218 0.025c-0.015 0.004-0.48 0.209-0.749 0.844L8.305 6.938l-1.701 0.33c-0.015 0.004-0.026 0.006-0.038 0.015L5.027 6.196c-0.343-0.241-0.387-0.967-0.393-0.995-0.041-0.497-0.324-0.966-0.778-1.288a1.876 1.876 0 0 0-1.363-0.342 1.295 1.295 0 0 0-0.848 0.516 1.245 1.245 0 0 0-0.228 0.73l0.02 0.236c0.079 0.458 0.361 0.883 0.771 1.178 0.416 0.294 0.909 0.419 1.364 0.342l0.107-0.023c0.012-0.007 0.694-0.218 1.025 0.01 0 0.006 1.149 0.815 1.455 1.033a0.531 0.531 0 0 0-0.085 0.272 0.591 0.591 0 0 0 0.704 0.574l2.037-0.397s0.175-0.055 0.247-0.107c0.097-0.067 0.169-0.209 0.169-0.21l0.538-1.079 0.374 1.774c-0.044 0.044-1.673 1.775-1.673 1.775l-0.029 0.032c-0.16 0.148-0.247 0.339-0.248 0.541v3.665a0.71 0.71 0 0 0 1.417 0V11.375c0.15-0.16 1.396-1.475 1.731-1.824l0.361 2.065a0.829 0.829 0 0 0 0.222 0.431c0 0.004 2.244 2.653 2.245 2.653a0.708 0.708 0 0 0 1.079-0.917"></path></g><g id="SvgjsG1050"><use xlink:href="#SvgjsG1045" transform="translate(0, 0) scale(3)" fill="rgba(241, 238, 241, 1)"></use><use xlink:href="#SvgjsG1046" transform="translate(0, 84) scale(3)" fill="rgba(241, 238, 241, 1)"></use><use xlink:href="#SvgjsG1047" transform="translate(0, 168) scale(3)" fill="rgba(241, 238, 241, 1)"></use><use xlink:href="#SvgjsG1048" transform="translate(0, 252) scale(3)" fill="rgba(241, 238, 241, 1)"></use><use xlink:href="#SvgjsG1049" transform="translate(0, 336) scale(3)" fill="rgba(241, 238, 241, 1)"></use><use xlink:href="#SvgjsG1045" transform="translate(0, 420) scale(3)" fill="rgba(241, 238, 241, 1)"></use><use xlink:href="#SvgjsG1046" transform="translate(0, 504) scale(3)" fill="rgba(241, 238, 241, 1)"></use><use xlink:href="#SvgjsG1047" transform="translate(0, 588) scale(3)" fill="rgba(241, 238, 241, 1)"></use><use xlink:href="#SvgjsG1048" transform="translate(0, 672) scale(3)" fill="rgba(241, 238, 241, 1)"></use><use xlink:href="#SvgjsG1049" transform="translate(0, 756) scale(3)" fill="rgba(241, 238, 241, 1)"></use><use xlink:href="#SvgjsG1046" transform="translate(84, 0) scale(3)" fill="rgba(241, 238, 241, 1)"></use><use xlink:href="#SvgjsG1047" transform="translate(84, 84) scale(3)" fill="rgba(241, 238, 241, 1)"></use><use xlink:href="#SvgjsG1048" transform="translate(84, 168) scale(3)" fill="rgba(241, 238, 241, 1)"></use><use xlink:href="#SvgjsG1049" transform="translate(84, 252) scale(3)" fill="rgba(241, 238, 241, 1)"></use><use xlink:href="#SvgjsG1045" transform="translate(84, 336) scale(3)" fill="rgba(241, 238, 241, 1)"></use><use xlink:href="#SvgjsG1046" transform="translate(84, 420) scale(3)" fill="rgba(241, 238, 241, 1)"></use><use xlink:href="#SvgjsG1047" transform="translate(84, 504) scale(3)" fill="rgba(241, 238, 241, 1)"></use><use xlink:href="#SvgjsG1048" transform="translate(84, 588) scale(3)" fill="rgba(241, 238, 241, 1)"></use><use xlink:href="#SvgjsG1049" transform="translate(84, 672) scale(3)" fill="rgba(241, 238, 241, 1)"></use><use xlink:href="#SvgjsG1045" transform="translate(84, 756) scale(3)" fill="rgba(241, 238, 241, 1)"></use><use xlink:href="#SvgjsG1047" transform="translate(168, 0) scale(3)" fill="rgba(241, 238, 241, 1)"></use><use xlink:href="#SvgjsG1048" transform="translate(168, 84) scale(3)" fill="rgba(241, 238, 241, 1)"></use><use xlink:href="#SvgjsG1049" transform="translate(168, 168) scale(3)" fill="rgba(241, 238, 241, 1)"></use><use xlink:href="#SvgjsG1045" transform="translate(168, 252) scale(3)" fill="rgba(241, 238, 241, 1)"></use><use xlink:href="#SvgjsG1046" transform="translate(168, 336) scale(3)" fill="rgba(241, 238, 241, 1)"></use><use xlink:href="#SvgjsG1047" transform="translate(168, 420) scale(3)" fill="rgba(241, 238, 241, 1)"></use><use xlink:href="#SvgjsG1048" transform="translate(168, 504) scale(3)" fill="rgba(241, 238, 241, 1)"></use><use xlink:href="#SvgjsG1049" transform="translate(168, 588) scale(3)" fill="rgba(241, 238, 241, 1)"></use><use xlink:href="#SvgjsG1045" transform="translate(168, 672) scale(3)" fill="rgba(241, 238, 241, 1)"></use><use xlink:href="#SvgjsG1046" transform="translate(168, 756) scale(3)" fill="rgba(241, 238, 241, 1)"></use><use xlink:href="#SvgjsG1048" transform="translate(252, 0) scale(3)" fill="rgba(241, 238, 241, 1)"></use><use xlink:href="#SvgjsG1049" transform="translate(252, 84) scale(3)" fill="rgba(241, 238, 241, 1)"></use><use xlink:href="#SvgjsG1045" transform="translate(252, 168) scale(3)" fill="rgba(241, 238, 241, 1)"></use><use xlink:href="#SvgjsG1046" transform="translate(252, 252) scale(3)" fill="rgba(241, 238, 241, 1)"></use><use xlink:href="#SvgjsG1047" transform="translate(252, 336) scale(3)" fill="rgba(241, 238, 241, 1)"></use><use xlink:href="#SvgjsG1048" transform="translate(252, 420) scale(3)" fill="rgba(241, 238, 241, 1)"></use><use xlink:href="#SvgjsG1049" transform="translate(252, 504) scale(3)" fill="rgba(241, 238, 241, 1)"></use><use xlink:href="#SvgjsG1045" transform="translate(252, 588) scale(3)" fill="rgba(241, 238, 241, 1)"></use><use xlink:href="#SvgjsG1046" transform="translate(252, 672) scale(3)" fill="rgba(241, 238, 241, 1)"></use><use xlink:href="#SvgjsG1047" transform="translate(252, 756) scale(3)" fill="rgba(241, 238, 241, 1)"></use><use xlink:href="#SvgjsG1049" transform="translate(336, 0) scale(3)" fill="rgba(241, 238, 241, 1)"></use><use xlink:href="#SvgjsG1045" transform="translate(336, 84) scale(3)" fill="rgba(241, 238, 241, 1)"></use><use xlink:href="#SvgjsG1046" transform="translate(336, 168) scale(3)" fill="rgba(241, 238, 241, 1)"></use><use xlink:href="#SvgjsG1047" transform="translate(336, 252) scale(3)" fill="rgba(241, 238, 241, 1)"></use><use xlink:href="#SvgjsG1048" transform="translate(336, 336) scale(3)" fill="rgba(241, 238, 241, 1)"></use><use xlink:href="#SvgjsG1049" transform="translate(336, 420) scale(3)" fill="rgba(241, 238, 241, 1)"></use><use xlink:href="#SvgjsG1045" transform="translate(336, 504) scale(3)" fill="rgba(241, 238, 241, 1)"></use><use xlink:href="#SvgjsG1046" transform="translate(336, 588) scale(3)" fill="rgba(241, 238, 241, 1)"></use><use xlink:href="#SvgjsG1047" transform="translate(336, 672) scale(3)" fill="rgba(241, 238, 241, 1)"></use><use xlink:href="#SvgjsG1048" transform="translate(336, 756) scale(3)" fill="rgba(241, 238, 241, 1)"></use><use xlink:href="#SvgjsG1045" transform="translate(420, 0) scale(3)" fill="rgba(241, 238, 241, 1)"></use><use xlink:href="#SvgjsG1046" transform="translate(420, 84) scale(3)" fill="rgba(241, 238, 241, 1)"></use><use xlink:href="#SvgjsG1047" transform="translate(420, 168) scale(3)" fill="rgba(241, 238, 241, 1)"></use><use xlink:href="#SvgjsG1048" transform="translate(420, 252) scale(3)" fill="rgba(241, 238, 241, 1)"></use><use xlink:href="#SvgjsG1049" transform="translate(420, 336) scale(3)" fill="rgba(241, 238, 241, 1)"></use><use xlink:href="#SvgjsG1045" transform="translate(420, 420) scale(3)" fill="rgba(241, 238, 241, 1)"></use><use xlink:href="#SvgjsG1046" transform="translate(420, 504) scale(3)" fill="rgba(241, 238, 241, 1)"></use><use xlink:href="#SvgjsG1047" transform="translate(420, 588) scale(3)" fill="rgba(241, 238, 241, 1)"></use><use xlink:href="#SvgjsG1048" transform="translate(420, 672) scale(3)" fill="rgba(241, 238, 241, 1)"></use><use xlink:href="#SvgjsG1049" transform="translate(420, 756) scale(3)" fill="rgba(241, 238, 241, 1)"></use><use xlink:href="#SvgjsG1046" transform="translate(504, 0) scale(3)" fill="rgba(241, 238, 241, 1)"></use><use xlink:href="#SvgjsG1047" transform="translate(504, 84) scale(3)" fill="rgba(241, 238, 241, 1)"></use><use xlink:href="#SvgjsG1048" transform="translate(504, 168) scale(3)" fill="rgba(241, 238, 241, 1)"></use><use xlink:href="#SvgjsG1049" transform="translate(504, 252) scale(3)" fill="rgba(241, 238, 241, 1)"></use><use xlink:href="#SvgjsG1045" transform="translate(504, 336) scale(3)" fill="rgba(241, 238, 241, 1)"></use><use xlink:href="#SvgjsG1046" transform="translate(504, 420) scale(3)" fill="rgba(241, 238, 241, 1)"></use><use xlink:href="#SvgjsG1047" transform="translate(504, 504) scale(3)" fill="rgba(241, 238, 241, 1)"></use><use xlink:href="#SvgjsG1048" transform="translate(504, 588) scale(3)" fill="rgba(241, 238, 241, 1)"></use><use xlink:href="#SvgjsG1049" transform="translate(504, 672) scale(3)" fill="rgba(241, 238, 241, 1)"></use><use xlink:href="#SvgjsG1045" transform="translate(504, 756) scale(3)" fill="rgba(241, 238, 241, 1)"></use><use xlink:href="#SvgjsG1047" transform="translate(588, 0) scale(3)" fill="rgba(241, 238, 241, 1)"></use><use xlink:href="#SvgjsG1048" transform="translate(588, 84) scale(3)" fill="rgba(241, 238, 241, 1)"></use><use xlink:href="#SvgjsG1049" transform="translate(588, 168) scale(3)" fill="rgba(241, 238, 241, 1)"></use><use xlink:href="#SvgjsG1045" transform="translate(588, 252) scale(3)" fill="rgba(241, 238, 241, 1)"></use><use xlink:href="#SvgjsG1046" transform="translate(588, 336) scale(3)" fill="rgba(241, 238, 241, 1)"></use><use xlink:href="#SvgjsG1047" transform="translate(588, 420) scale(3)" fill="rgba(241, 238, 241, 1)"></use><use xlink:href="#SvgjsG1048" transform="translate(588, 504) scale(3)" fill="rgba(241, 238, 241, 1)"></use><use xlink:href="#SvgjsG1049" transform="translate(588, 588) scale(3)" fill="rgba(241, 238, 241, 1)"></use><use xlink:href="#SvgjsG1045" transform="translate(588, 672) scale(3)" fill="rgba(241, 238, 241, 1)"></use><use xlink:href="#SvgjsG1046" transform="translate(588, 756) scale(3)" fill="rgba(241, 238, 241, 1)"></use><use xlink:href="#SvgjsG1048" transform="translate(672, 0) scale(3)" fill="rgba(241, 238, 241, 1)"></use><use xlink:href="#SvgjsG1049" transform="translate(672, 84) scale(3)" fill="rgba(241, 238, 241, 1)"></use><use xlink:href="#SvgjsG1045" transform="translate(672, 168) scale(3)" fill="rgba(241, 238, 241, 1)"></use><use xlink:href="#SvgjsG1046" transform="translate(672, 252) scale(3)" fill="rgba(241, 238, 241, 1)"></use><use xlink:href="#SvgjsG1047" transform="translate(672, 336) scale(3)" fill="rgba(241, 238, 241, 1)"></use><use xlink:href="#SvgjsG1048" transform="translate(672, 420) scale(3)" fill="rgba(241, 238, 241, 1)"></use><use xlink:href="#SvgjsG1049" transform="translate(672, 504) scale(3)" fill="rgba(241, 238, 241, 1)"></use><use xlink:href="#SvgjsG1045" transform="translate(672, 588) scale(3)" fill="rgba(241, 238, 241, 1)"></use><use xlink:href="#SvgjsG1046" transform="translate(672, 672) scale(3)" fill="rgba(241, 238, 241, 1)"></use><use xlink:href="#SvgjsG1047" transform="translate(672, 756) scale(3)" fill="rgba(241, 238, 241, 1)"></use><use xlink:href="#SvgjsG1049" transform="translate(756, 0) scale(3)" fill="rgba(241, 238, 241, 1)"></use><use xlink:href="#SvgjsG1045" transform="translate(756, 84) scale(3)" fill="rgba(241, 238, 241, 1)"></use><use xlink:href="#SvgjsG1046" transform="translate(756, 168) scale(3)" fill="rgba(241, 238, 241, 1)"></use><use xlink:href="#SvgjsG1047" transform="translate(756, 252) scale(3)" fill="rgba(241, 238, 241, 1)"></use><use xlink:href="#SvgjsG1048" transform="translate(756, 336) scale(3)" fill="rgba(241, 238, 241, 1)"></use><use xlink:href="#SvgjsG1049" transform="translate(756, 420) scale(3)" fill="rgba(241, 238, 241, 1)"></use><use xlink:href="#SvgjsG1045" transform="translate(756, 504) scale(3)" fill="rgba(241, 238, 241, 1)"></use><use xlink:href="#SvgjsG1046" transform="translate(756, 588) scale(3)" fill="rgba(241, 238, 241, 1)"></use><use xlink:href="#SvgjsG1047" transform="translate(756, 672) scale(3)" fill="rgba(241, 238, 241, 1)"></use><use xlink:href="#SvgjsG1048" transform="translate(756, 756) scale(3)" fill="rgba(241, 238, 241, 1)"></use></g></defs></svg>